<svg width="28" height="29" viewBox="0 0 28 29" fill="none" xmlns="http://www.w3.org/2000/svg">
<g id="calendar-03">
<path id="Vector" d="M21 2.41345V4.74679M7 2.41345V4.74679" stroke="#F38F1E" stroke-width="1.5" stroke-linecap="round" stroke-linejoin="round"/>
<path id="Vector_2" d="M13.9944 15.2467H14.0049M13.9944 19.9134H14.0049M18.6558 15.2467H18.6663M9.33301 15.2467H9.34347M9.33301 19.9134H9.34347" stroke="#F38F1E" stroke-width="2" stroke-linecap="round" stroke-linejoin="round"/>
<path id="Vector_3" d="M4.08301 9.41345H23.9163" stroke="#F38F1E" stroke-width="1.5" stroke-linecap="round" stroke-linejoin="round"/>
<path id="Vector_4" d="M2.91699 14.3638C2.91699 9.28034 2.91699 6.73857 4.3778 5.15932C5.83861 3.58008 8.18973 3.58008 12.892 3.58008H15.1087C19.8109 3.58008 22.1621 3.58008 23.6229 5.15932C25.0837 6.73857 25.0837 9.28034 25.0837 14.3638V14.963C25.0837 20.0465 25.0837 22.5882 23.6229 24.1675C22.1621 25.7467 19.8109 25.7467 15.1087 25.7467H12.892C8.18973 25.7467 5.83861 25.7467 4.3778 24.1675C2.91699 22.5882 2.91699 20.0465 2.91699 14.963V14.3638Z" stroke="#F38F1E" stroke-width="1.5" stroke-linecap="round" stroke-linejoin="round"/>
<path id="Vector_5" d="M3.5 9.41345H24.5" stroke="#F38F1E" stroke-width="1.5" stroke-linecap="round" stroke-linejoin="round"/>
</g>
</svg>
