<svg width="29" height="28" viewBox="0 0 29 28" fill="none" xmlns="http://www.w3.org/2000/svg">
<g id="pen-tool-03">
<path id="Vector" d="M15.9994 22.5921L7.29283 24.209C5.62287 24.5191 4.7879 24.6742 4.30687 24.1932C3.82584 23.712 3.98089 22.8771 4.291 21.207L5.90777 12.5C6.16702 11.1039 6.29665 10.4058 6.75686 9.98398C7.21707 9.56219 8.0587 9.47987 9.74198 9.31523C11.3643 9.15655 12.8997 8.6004 14.5 7L21.5 14.0006C19.8997 15.601 19.3432 17.1353 19.1843 18.7578C19.0194 20.4413 18.9369 21.283 18.5152 21.7432C18.0934 22.2033 17.3954 22.3329 15.9994 22.5921Z" stroke="white" stroke-opacity="0.976471" stroke-width="1.75" stroke-linejoin="round"/>
<path id="Vector_2" d="M13.3337 17.7456C12.6809 17.6397 12.0841 17.3557 11.6144 16.886M11.6144 16.886C11.1446 16.4163 10.8607 15.8194 10.7547 15.1667M11.6144 16.886L5.16699 23.3334" stroke="white" stroke-opacity="0.976471" stroke-width="1.75" stroke-linecap="round"/>
<path id="Vector_3" d="M14.5 7C15.331 5.77395 16.4566 3.7114 18.1242 3.51281C19.2626 3.37726 20.2057 4.32031 22.0917 6.20641L22.2936 6.40823C24.1797 8.29435 25.1227 9.2374 24.9872 10.3758C24.7886 12.0434 22.726 13.169 21.5 14" stroke="white" stroke-opacity="0.976471" stroke-width="1.75" stroke-linejoin="round"/>
</g>
</svg>
