<svg width="29" height="28" viewBox="0 0 29 28" fill="none" xmlns="http://www.w3.org/2000/svg">
<g id="medicine-02">
<path id="Vector" d="M24.0584 15.1655C25.9915 18.5136 24.8444 22.7947 21.4963 24.7277C18.1482 26.6608 13.8671 25.5136 11.9341 22.1655M24.0584 15.1655C22.1255 11.8175 17.8444 10.6704 14.4963 12.6034C11.1482 14.5364 10.0011 18.8175 11.9341 22.1655M24.0584 15.1655L11.9341 22.1655" stroke="white" stroke-opacity="0.976471" stroke-width="1.75"/>
<path id="Vector_2" d="M12.2166 6.46568L18.1491 2.96028C20.3333 1.66962 23.1263 2.43555 24.3874 4.67103C25.4005 6.46699 25.1167 8.66504 23.8333 10.1292M12.2166 6.46568L6.28416 9.97109C4.0999 11.2617 3.35151 14.1203 4.61259 16.3557C5.37082 17.6998 6.68282 18.5126 8.08333 18.6666M12.2166 6.46568L13.9167 9.33331" stroke="white" stroke-opacity="0.976471" stroke-width="1.75" stroke-linecap="round" stroke-linejoin="round"/>
</g>
</svg>
