<svg width="29" height="28" viewBox="0 0 29 28" fill="none" xmlns="http://www.w3.org/2000/svg">
<g id="file-validation">
<path id="Vector" d="M11.8482 2.33337C8.04342 2.33337 6.14104 2.33337 4.81992 3.26419C4.4414 3.53088 4.10535 3.84715 3.82199 4.20341C2.83301 5.44682 2.83301 7.23729 2.83301 10.8182V13.7879C2.83301 17.245 2.83301 18.9734 3.3801 20.3539C4.25962 22.5734 6.11967 24.324 8.47776 25.1517C9.94458 25.6667 11.7811 25.6667 15.4542 25.6667C17.5532 25.6667 18.6026 25.6667 19.4407 25.3725C20.7882 24.8995 21.8511 23.8991 22.3537 22.6309C22.6663 21.842 22.6663 20.8543 22.6663 18.8788V18.0834" stroke="white" stroke-opacity="0.976471" stroke-width="1.75" stroke-linecap="round" stroke-linejoin="round"/>
<path id="Vector_2" d="M18 8.74996C18 8.74996 18.5833 8.74996 19.1667 9.91663C19.1667 9.91663 21.0196 6.99996 22.6667 6.41663" stroke="white" stroke-opacity="0.976471" stroke-width="1.75" stroke-linecap="round" stroke-linejoin="round"/>
<path id="Vector_3" d="M26.1667 8.16671C26.1667 11.3884 23.555 14 20.3333 14C17.1117 14 14.5 11.3884 14.5 8.16671C14.5 4.94505 17.1117 2.33337 20.3333 2.33337C23.555 2.33337 26.1667 4.94505 26.1667 8.16671Z" stroke="white" stroke-opacity="0.976471" stroke-width="1.75" stroke-linecap="round"/>
<path id="Vector_4" d="M2.83301 14C2.83301 16.1477 4.57412 17.8888 6.72189 17.8888C7.49865 17.8888 8.41439 17.7528 9.16961 17.9551C9.84061 18.1349 10.3647 18.6591 10.5445 19.33C10.7469 20.0853 10.6108 21.0011 10.6108 21.7778C10.6108 23.9255 12.352 25.6667 14.4997 25.6667" stroke="white" stroke-opacity="0.976471" stroke-width="1.75" stroke-linecap="round" stroke-linejoin="round"/>
</g>
</svg>
