<svg width="29" height="28" viewBox="0 0 29 28" fill="none" xmlns="http://www.w3.org/2000/svg">
<g id="customer-service-01">
<path id="Vector" d="M20.333 13.7719C20.333 13.3686 20.333 13.167 20.3937 12.9873C20.5701 12.4651 21.0351 12.2626 21.501 12.0503C22.0247 11.8118 22.2865 11.6925 22.5459 11.6715C22.8405 11.6477 23.1356 11.7112 23.3873 11.8525C23.7211 12.0397 23.9539 12.3957 24.1922 12.6851C25.2929 14.0219 25.8431 14.6904 26.0444 15.4275C26.2069 16.0223 26.2069 16.6443 26.0444 17.2391C25.7508 18.3142 24.8229 19.2154 24.1361 20.0496C23.7848 20.4762 23.6091 20.6896 23.3873 20.8141C23.1356 20.9554 22.8405 21.0189 22.5459 20.9951C22.2865 20.9741 22.0247 20.8548 21.501 20.6162C21.0351 20.404 20.5701 20.2015 20.3937 19.6793C20.333 19.4996 20.333 19.298 20.333 18.8947V13.7719Z" stroke="white" stroke-opacity="0.976471" stroke-width="1.75"/>
<path id="Vector_2" d="M8.66634 13.772C8.66634 13.2642 8.65208 12.8078 8.24157 12.4508C8.09226 12.321 7.8943 12.2308 7.4984 12.0504C6.97469 11.812 6.71283 11.6927 6.45336 11.6717C5.6749 11.6087 5.25608 12.14 4.80716 12.6853C3.70655 14.0221 3.15624 14.6905 2.95488 15.4276C2.79238 16.0225 2.79238 16.6445 2.95488 17.2393C3.24857 18.3144 4.17645 19.2155 4.86325 20.0498C5.29618 20.5756 5.70974 21.0553 6.45336 20.9953C6.71283 20.9743 6.97469 20.8549 7.4984 20.6164C7.8943 20.4361 8.09226 20.3459 8.24157 20.216C8.65208 19.859 8.66634 19.4028 8.66634 18.8949V13.772Z" stroke="white" stroke-opacity="0.976471" stroke-width="1.75"/>
<path id="Vector_3" d="M23.8337 12.25V10.5C23.8337 5.98972 19.655 2.33337 14.5003 2.33337C9.34567 2.33337 5.16699 5.98972 5.16699 10.5V12.25" stroke="white" stroke-opacity="0.976471" stroke-width="1.75" stroke-linecap="round" stroke-linejoin="round"/>
<path id="Vector_4" d="M23.8333 20.4166C23.8333 25.6666 19.1667 25.6666 14.5 25.6666" stroke="white" stroke-opacity="0.976471" stroke-width="1.75" stroke-linecap="round" stroke-linejoin="round"/>
</g>
</svg>
