<svg width="29" height="28" viewBox="0 0 29 28" fill="none" xmlns="http://www.w3.org/2000/svg">
<g id="test-tube-01">
<path id="Vector" d="M17.4642 2.33337V5.23396C17.4642 7.27324 17.4642 8.29287 17.7139 9.27172C17.9636 10.2506 18.4529 11.1493 19.4315 12.9469L20.7575 15.3828C23.2513 19.9635 24.4982 22.2539 23.4753 23.9517L23.4594 23.9776C22.4215 25.6667 19.7811 25.6667 14.5003 25.6667C9.21949 25.6667 6.57908 25.6667 5.54126 23.9776L5.52545 23.9517C4.50251 22.2539 5.74937 19.9635 8.24309 15.3828L9.56917 12.9469C10.5478 11.1493 11.0371 10.2506 11.2867 9.27172C11.5364 8.29287 11.5364 7.27324 11.5364 5.23396V2.33337" stroke="white" stroke-opacity="0.976471" stroke-width="1.75"/>
<path id="Vector_2" d="M11 18.6691L11.0101 18.6663" stroke="white" stroke-opacity="0.976471" stroke-width="2.33333" stroke-linecap="round" stroke-linejoin="round"/>
<path id="Vector_3" d="M18 21.0023L18.0102 20.9995" stroke="white" stroke-opacity="0.976471" stroke-width="2.33333" stroke-linecap="round" stroke-linejoin="round"/>
<path id="Vector_4" d="M9.83301 2.33337H19.1663" stroke="white" stroke-opacity="0.976471" stroke-width="1.75" stroke-linecap="round" stroke-linejoin="round"/>
<path id="Vector_5" d="M9.25 13.4824C10.4167 12.1368 12.2826 13.1068 14.5 14.3713C17.4167 16.0346 19.1667 14.7584 19.75 13.5512" stroke="white" stroke-opacity="0.976471" stroke-width="1.75" stroke-linecap="round"/>
</g>
</svg>
