<svg width="29" height="28" viewBox="0 0 29 28" fill="none" xmlns="http://www.w3.org/2000/svg">
<g id="assignments">
<path id="Vector" d="M5.16634 3.5H3.99967C3.35535 3.5 2.83301 4.02234 2.83301 4.66667V21L4.58301 24.5L6.33301 21V4.66667C6.33301 4.02234 5.81067 3.5 5.16634 3.5Z" stroke="white" stroke-opacity="0.976471" stroke-width="1.75" stroke-linejoin="round"/>
<path id="Vector_2" d="M24.9997 14.0015V9.33417C24.9997 6.58392 24.9997 5.20879 24.1454 4.3544C23.2911 3.5 21.9162 3.5 19.1663 3.5H15.6663C12.9165 3.5 11.5416 3.5 10.6873 4.3544C9.83301 5.20879 9.83301 6.58392 9.83301 9.33417V18.6689C9.83301 21.4191 9.83301 22.7942 10.6873 23.6487C11.4111 24.3726 12.5086 24.4831 14.4997 24.5" stroke="white" stroke-opacity="0.976471" stroke-width="1.75" stroke-linecap="round" stroke-linejoin="round"/>
<path id="Vector_3" d="M14.5 8.16663H20.3333" stroke="white" stroke-opacity="0.976471" stroke-width="1.75" stroke-linecap="round" stroke-linejoin="round"/>
<path id="Vector_4" d="M14.5 12.8334H20.3333" stroke="white" stroke-opacity="0.976471" stroke-width="1.75" stroke-linecap="round" stroke-linejoin="round"/>
<path id="Vector_5" d="M16.833 22.1667C16.833 22.1667 18.583 22.75 19.7497 24.5C19.7497 24.5 21.4997 19.8333 26.1663 17.5" stroke="white" stroke-opacity="0.976471" stroke-width="1.75" stroke-linecap="round" stroke-linejoin="round"/>
<path id="Vector_6" d="M2.83301 8.16663H6.33301" stroke="white" stroke-opacity="0.976471" stroke-width="1.75" stroke-linecap="round" stroke-linejoin="round"/>
</g>
</svg>
