<svg width="29" height="28" viewBox="0 0 29 28" fill="none" xmlns="http://www.w3.org/2000/svg">
<g id="clipboard">
<path id="Vector" d="M20.3611 3.53922L19.2474 3.24249C16.0975 2.40321 14.5225 1.98358 13.2817 2.6959C12.0409 3.40822 11.6189 4.97432 10.7749 8.10652L9.58126 12.5361C8.73723 15.6683 8.31522 17.2344 9.03158 18.4681C9.74793 19.702 11.3229 20.1215 14.4729 20.9608L15.5866 21.2576C18.7365 22.0968 20.3115 22.5165 21.5522 21.8042C22.793 21.0919 23.2151 19.5257 24.0591 16.3936L25.2527 11.964C26.0968 8.83177 26.5187 7.26567 25.8024 6.03189C25.0861 4.79812 23.5111 4.37848 20.3611 3.53922Z" stroke="white" stroke-opacity="0.976471" stroke-width="1.75"/>
<path id="Vector_2" d="M20.163 8.67184C20.163 9.6216 19.3887 10.3915 18.4336 10.3915C17.4784 10.3915 16.7041 9.6216 16.7041 8.67184C16.7041 7.72208 17.4784 6.95215 18.4336 6.95215C19.3887 6.95215 20.163 7.72208 20.163 8.67184Z" stroke="white" stroke-opacity="0.976471" stroke-width="1.75"/>
<path id="Vector_3" d="M14.4997 24.4373L13.3887 24.7398C10.246 25.5956 8.67477 26.0235 7.4369 25.2971C6.19904 24.5709 5.77802 22.9741 4.93596 19.7804L3.74513 15.2639C2.90308 12.0703 2.48205 10.4735 3.19674 9.21549C3.81496 8.1273 5.16634 8.16692 6.91634 8.16678" stroke="white" stroke-opacity="0.976471" stroke-width="1.75" stroke-linecap="round"/>
</g>
</svg>
