<svg width="29" height="28" viewBox="0 0 29 28" fill="none" xmlns="http://www.w3.org/2000/svg">
<g id="course">
<path id="Vector" d="M23.8333 17.5C23.8333 19.6744 23.8333 20.7615 23.478 21.6192C23.0044 22.7626 22.0959 23.6711 20.9524 24.1447C20.0948 24.5 19.0076 24.5 16.8333 24.5H13.3333C8.93353 24.5 6.73362 24.5 5.36679 23.1331C3.99994 21.7663 3.99997 19.5664 4 15.1665L4.00007 8.16647C4.00009 5.58924 6.08936 3.5 8.66659 3.5" stroke="white" stroke-opacity="0.976471" stroke-width="1.75" stroke-linecap="round" stroke-linejoin="round"/>
<path id="Vector_2" d="M12.1669 9.91663L12.6729 14.547C12.7212 14.9341 12.9591 15.2715 13.3175 15.4255C14.1178 15.7692 15.6168 16.3333 16.8336 16.3333C18.0506 16.3333 19.5495 15.7692 20.3498 15.4255C20.7082 15.2715 20.9461 14.9341 20.9944 14.547L21.5003 9.91663M24.4169 8.74996V13.1474M16.8336 4.66663L8.66699 8.16663L16.8336 11.6666L25.0003 8.16663L16.8336 4.66663Z" stroke="white" stroke-opacity="0.976471" stroke-width="1.75" stroke-linecap="round" stroke-linejoin="round"/>
</g>
</svg>
