<svg width="28" height="29" viewBox="0 0 28 29" fill="none" xmlns="http://www.w3.org/2000/svg">
<g id="dollar-circle">
<path id="Vector" d="M25.6663 14.08C25.6663 20.5233 20.4429 25.7467 13.9997 25.7467C7.55635 25.7467 2.33301 20.5233 2.33301 14.08C2.33301 7.63667 7.55635 2.41333 13.9997 2.41333C20.4429 2.41333 25.6663 7.63667 25.6663 14.08Z" stroke="#316FB3" stroke-width="1.75"/>
<path id="Vector_2" d="M17.1616 11.8179C17.046 10.9282 16.0243 9.49058 14.1873 9.49055C12.0527 9.49051 11.1546 10.6727 10.9723 11.2638C10.688 12.0544 10.7449 13.6799 13.2468 13.8572C16.3743 14.0788 17.6272 14.448 17.4678 16.362C17.3083 18.2759 15.565 18.6895 14.1873 18.645C12.8094 18.6008 10.5553 17.9679 10.4678 16.2655M13.9686 8.24438V9.49478M13.9686 18.6336V19.911" stroke="#316FB3" stroke-width="1.75" stroke-linecap="round"/>
</g>
</svg>
