<svg width="29" height="29" viewBox="0 0 29 29" fill="none" xmlns="http://www.w3.org/2000/svg">
<g id="pen-tool-03">
<path id="Vector" d="M15.9994 22.6721L7.29283 24.289C5.62287 24.5991 4.7879 24.7541 4.30687 24.2731C3.82584 23.792 3.98089 22.957 4.291 21.2869L5.90777 12.58C6.16702 11.1838 6.29665 10.4857 6.75686 10.0639C7.21707 9.64214 8.0587 9.55982 9.74198 9.39518C11.3643 9.2365 12.8997 8.68035 14.5 7.07996L21.5 14.0805C19.8997 15.681 19.3432 17.2153 19.1843 18.8377C19.0194 20.5212 18.9369 21.363 18.5152 21.8231C18.0934 22.2833 17.3954 22.4129 15.9994 22.6721Z" stroke="white" stroke-opacity="0.976471" stroke-width="1.75" stroke-linejoin="round"/>
<path id="Vector_2" d="M13.3337 17.8255C12.6809 17.7196 12.0841 17.4356 11.6144 16.9659M11.6144 16.9659C11.1446 16.4962 10.8607 15.8993 10.7547 15.2466M11.6144 16.9659L5.16699 23.4132" stroke="white" stroke-opacity="0.976471" stroke-width="1.75" stroke-linecap="round"/>
<path id="Vector_3" d="M14.5 7.07996C15.331 5.85391 16.4566 3.79136 18.1242 3.59277C19.2626 3.45721 20.2057 4.40026 22.0917 6.28637L22.2936 6.48819C24.1797 8.3743 25.1227 9.31736 24.9872 10.4557C24.7886 12.1233 22.726 13.2489 21.5 14.08" stroke="white" stroke-opacity="0.976471" stroke-width="1.75" stroke-linejoin="round"/>
</g>
</svg>
