<svg width="28" height="29" viewBox="0 0 28 29" fill="none" xmlns="http://www.w3.org/2000/svg">
<g id="rocket">
<path id="Vector" d="M9.33301 11.9411L14.1434 7.13068C15.4558 5.81834 16.1119 5.16216 16.8361 4.63366C18.3218 3.54931 20.0451 2.83551 21.8624 2.55167C22.7483 2.41333 23.6762 2.41333 25.5322 2.41333C25.6291 2.41333 25.6663 2.4578 25.6663 2.54754C25.6663 4.40348 25.6663 5.33146 25.528 6.2172C25.2441 8.03454 24.5304 9.75781 23.4461 11.2436C22.9176 11.9677 22.2613 12.6239 20.949 13.9363L16.1385 18.7467" stroke="#316FB3" stroke-width="1.75" stroke-linecap="round" stroke-linejoin="round"/>
<path id="Vector_2" d="M12.0642 9.52811C10.0774 9.52811 7.58042 9.10725 5.72136 9.8773C4.35917 10.4415 3.3568 11.7481 2.33301 12.7718L6.18997 14.4247C7.2121 14.8628 6.58727 16.1527 6.41806 16.9988C6.2295 17.9415 6.24001 17.9763 6.91985 18.6561L9.42352 21.1598C10.1034 21.8396 10.1381 21.8502 11.0809 21.6616C11.927 21.4924 13.2168 20.8675 13.6548 21.8897L15.3079 25.7467C16.3316 24.7229 17.6382 23.7205 18.2024 22.3583C18.9725 20.4992 18.5515 18.0022 18.5515 16.0155" stroke="#316FB3" stroke-width="1.75" stroke-linejoin="round"/>
<path id="Vector_3" d="M13.9997 23.4133L12.833 24.58" stroke="#316FB3" stroke-width="1.75" stroke-linecap="round" stroke-linejoin="round"/>
<path id="Vector_4" d="M4.66667 14.0801L3.5 15.2467" stroke="#316FB3" stroke-width="1.75" stroke-linecap="round" stroke-linejoin="round"/>
<path id="Vector_5" d="M17.5 4.84009C18.9 5.05009 20.37 5.61009 21.1883 6.45009C22.2339 7.37426 22.96 8.62009 23.24 10.5801" stroke="#316FB3" stroke-width="1.75" stroke-linecap="square"/>
<path id="Vector_6" d="M20.93 7.15015L19.25 8.83015" stroke="#316FB3" stroke-width="1.75" stroke-linecap="round"/>
</g>
</svg>
