<svg width="92" height="91" viewBox="0 0 92 91" fill="none" xmlns="http://www.w3.org/2000/svg">
<path id="Star 1" d="M42.5263 3.08482C44.3263 0.899004 47.6737 0.899002 49.4737 3.08482L56.1078 11.1407C57.38 12.6855 59.3909 13.4174 61.3584 13.0517L71.6186 11.1449C74.4025 10.6275 76.9667 12.7791 76.9406 15.6106L76.8444 26.046C76.826 28.0472 77.8959 29.9004 79.6382 30.885L88.7237 36.0194C91.1889 37.4126 91.7701 40.7091 89.9301 42.8613L83.1486 50.7935C81.8482 52.3146 81.4766 54.422 82.1783 56.2962L85.8379 66.0694C86.8308 68.7212 85.1571 71.6201 82.3642 72.086L72.0706 73.8034C70.0966 74.1327 68.4573 75.5082 67.7902 77.395L64.3115 87.234C63.3676 89.9037 60.2221 91.0485 57.783 89.6102L48.7938 84.3092C47.07 83.2926 44.93 83.2926 43.2062 84.3092L34.217 89.6102C31.7779 91.0485 28.6324 89.9037 27.6885 87.234L24.2098 77.395C23.5427 75.5082 21.9034 74.1327 19.9294 73.8034L9.63585 72.086C6.84286 71.6201 5.16917 68.7212 6.16212 66.0694L9.82166 56.2962C10.5234 54.422 10.1518 52.3146 8.85139 50.7935L2.06992 42.8613C0.229886 40.7091 0.81115 37.4126 3.27633 36.0194L12.3618 30.885C14.1041 29.9004 15.174 28.0472 15.1556 26.046L15.0594 15.6106C15.0333 12.7791 17.5975 10.6275 20.3814 11.1449L30.6416 13.0517C32.6091 13.4174 34.62 12.6855 35.8922 11.1407L42.5263 3.08482Z" fill="#316FB3" stroke="#316FB3"/>
</svg>
