<svg width="18" height="14" viewBox="0 0 18 14" fill="none" xmlns="http://www.w3.org/2000/svg">
<g id="&#226;&#128;&#152;&#226;&#128;&#153;">
<path d="M0.5 12.4964C0.813071 11.2583 1.21311 9.91409 1.70011 8.46375C2.1871 7.01341 2.70889 5.56307 3.26546 4.11273C3.85682 2.66239 4.43078 1.31817 4.98735 0.0800781H8.37895C8.06588 1.4243 7.73542 2.87464 7.38756 4.4311C7.03971 5.95219 6.72663 7.47328 6.44835 8.99436C6.17006 10.4801 5.94396 11.842 5.77003 13.0801H0.813071L0.5 12.4964Z" fill="white" fill-opacity="0.976471"/>
<path d="M17.5 0.663754C17.1869 1.90185 16.7869 3.24606 16.2999 4.6964C15.8129 6.14675 15.2737 7.59709 14.6824 9.04743C14.1258 10.4624 13.5692 11.8066 13.0126 13.0801H9.62105C9.86455 12.0896 10.108 11.0284 10.3515 9.8964C10.6298 8.76443 10.8733 7.63246 11.082 6.50048C11.3255 5.33314 11.5343 4.20117 11.7082 3.10457C11.9169 2.00797 12.0908 0.999807 12.23 0.0800781H17.1348L17.5 0.663754Z" fill="white" fill-opacity="0.976471"/>
</g>
</svg>
