<svg width="28" height="29" viewBox="0 0 28 29" fill="none" xmlns="http://www.w3.org/2000/svg">
<g id="user-switch">
<path id="Vector" d="M4.41993 10.6233C3.59464 11.0701 1.4308 11.9823 2.74873 13.1238C3.39252 13.6813 4.10955 14.0801 5.01101 14.0801H10.155C11.0565 14.0801 11.7734 13.6813 12.4173 13.1238C13.7352 11.9823 11.5714 11.0701 10.7461 10.6233C8.81082 9.57575 6.3552 9.57575 4.41993 10.6233Z" stroke="#316FB3" stroke-width="1.75"/>
<path id="Vector_2" d="M10.208 5.06485C10.208 6.52924 9.03275 7.71636 7.58301 7.71636C6.13326 7.71636 4.95801 6.52924 4.95801 5.06485C4.95801 3.60045 6.13326 2.41333 7.58301 2.41333C9.03275 2.41333 10.208 3.60045 10.208 5.06485Z" stroke="#316FB3" stroke-width="1.75"/>
<path id="Vector_3" d="M4.66699 17.5801C4.66699 21.45 7.797 24.5801 11.667 24.5801L10.667 22.5801" stroke="#316FB3" stroke-width="1.75" stroke-linecap="round" stroke-linejoin="round"/>
<path id="Vector_4" d="M23.333 10.5801C23.333 6.71008 20.203 3.58008 16.333 3.58008L17.333 5.58008" stroke="#316FB3" stroke-width="1.75" stroke-linecap="round" stroke-linejoin="round"/>
<path id="Vector_5" d="M17.2539 22.2901C16.4286 22.7368 14.2648 23.649 15.5827 24.7905C16.2266 25.348 16.9435 25.7468 17.845 25.7468H22.989C23.8905 25.7468 24.6074 25.348 25.2513 24.7905C26.5692 23.649 24.4054 22.7368 23.5801 22.2901C21.6448 21.2425 19.1892 21.2425 17.2539 22.2901Z" stroke="#316FB3" stroke-width="1.75"/>
<path id="Vector_6" d="M23.042 16.7316C23.042 18.196 21.8667 19.3832 20.417 19.3832C18.9673 19.3832 17.792 18.196 17.792 16.7316C17.792 15.2672 18.9673 14.0801 20.417 14.0801C21.8667 14.0801 23.042 15.2672 23.042 16.7316Z" stroke="#316FB3" stroke-width="1.75"/>
</g>
</svg>
